<svg xmlns="http://www.w3.org/2000/svg" viewBox="0 0 64 64"><path d="M14 43a5 5 0 1 0 5 5A5 5 0 0 0 14 43zm0 8a3 3 0 1 1 3-3A3 3 0 0 1 14 51zM42 43a5 5 0 1 0 5 5A5 5 0 0 0 42 43zm0 8a3 3 0 1 1 3-3A3 3 0 0 1 42 51z"/><circle cx="14" cy="48" r="1"/><circle cx="42" cy="48" r="1"/><path d="M38.61 41.87a7.07 7.07 0 0 1 6.78 0 .94.94 0 0 0 .48.13 1 1 0 0 0 .49-1.88 9.06 9.06 0 0 0-8.72 0 1 1 0 1 0 1 1.75zM12 41.29a6.85 6.85 0 0 1 4.06 0 1 1 0 0 0 .3 0 1 1 0 0 0 .3-2 9 9 0 0 0-5.23 0A1 1 0 0 0 12 41.29zM29 39a1 1 0 0 0-1 1v2a1 1 0 0 0 2 0V40A1 1 0 0 0 29 39z"/><path d="M61,51a7,7,0,0,1-6.34-3.92L54,45.74a11,11,0,0,0-6.87-9.93L48,33.2a4.44,4.44,0,0,1,.8-1.46,4.59,4.59,0,0,1,2.41-1.57,6.66,6.66,0,0,0,4.56-8.56,5.34,5.34,0,0,0,2.72-2.83,2.81,2.81,0,0,0,.08-.31,5.54,5.54,0,0,0,3.2-3,4,4,0,0,0-5.67-4.88c0-.08-.07-.15-.1-.23a4,4,0,0,0-7.39.32,4.34,4.34,0,0,0-.19.81,4.11,4.11,0,0,0-1,.3A4,4,0,0,0,45.32,14c-1.37,3.77,3,8,3.78,8.7l.15.89a4.64,4.64,0,0,1-2.94,5.1A6.62,6.62,0,0,0,43,31.45,11,11,0,0,0,33,25H25.71a5,5,0,0,0-4.64,3.14L18.32,35H9.39A5,5,0,0,0,4.5,39H4a2,2,0,0,0-2,2v2a2,2,0,0,0,1.5,1.93l-.1.58a3,3,0,0,0,3,3.49,1,1,0,0,0,0-2,1,1,0,0,1-1-1.16L5.51,45H7a3,3,0,0,0,0-6H6.56a3,3,0,0,1,2.83-2h8.83L21,48.24s0,0,0,.08l.06.14.13.18.09.1.19.13.11.06A1,1,0,0,0,22,49H33a1,1,0,0,0,1-1V37h9a9,9,0,0,1,9,9,1,1,0,0,1-1,1H50a1,1,0,0,0,0,2h1a2.94,2.94,0,0,0,2-.79A9,9,0,0,0,61,53a1,1,0,0,0,0-2ZM8,42a1,1,0,0,1-1,1H4V41H7A1,1,0,0,1,8,42ZM53.72,25.6a4.65,4.65,0,0,1-3,2.64,6.24,6.24,0,0,0-.86.3,6.58,6.58,0,0,0,1.41-5.28l0-.34a15.88,15.88,0,0,0,2.74-.56A4.71,4.71,0,0,1,53.72,25.6Zm2.4-12.23a2,2,0,1,1,3.76,1.37,3.18,3.18,0,0,1-1.36,1.49,4,4,0,0,0-2.43-2.57h0a.61.61,0,0,0-.13,0A1.13,1.13,0,0,0,56.12,13.37ZM53,10.12a1.93,1.93,0,0,1,1.13,1,2,2,0,0,1,.07,1.52,1.07,1.07,0,0,0-.06.35.88.88,0,0,0,.11.42,4,4,0,0,0-1.48.46l-.1-.24a4,4,0,0,0-2.26-2.06h0a1.91,1.91,0,0,1,.07-.28A2,2,0,0,1,53,10.12ZM47.2,14.68a2,2,0,0,1,1-1.13,2,2,0,0,1,.84-.19,2.09,2.09,0,0,1,.69.12A2,2,0,0,1,51,16.05a1,1,0,0,0-.06.34,1,1,0,0,0,1.94.34,2,2,0,0,1,3.86,1s0,0,0,0a2.49,2.49,0,0,1-.09.37c-.76,2.08-4.54,2.77-6.38,2.91C48.9,19.72,46.45,16.76,47.2,14.68ZM47,30.56c.09,0,.18-.09.27-.13l0,.05a6.58,6.58,0,0,0-1.15,2.09l-.88,2.65c-.41-.08-.82-.13-1.24-.17a.7.7,0,0,0,0-.14A4.67,4.67,0,0,1,47,30.56ZM32,47H22.78l-2.5-10h4.8a1,1,0,0,0,0-2h-4.6l2.44-6.11A3,3,0,0,1,25.71,27H32v5a1,1,0,0,0,2,0V27.06A9,9,0,0,1,41.94,35H29.75a1,1,0,0,0,0,2H32Z"/></svg>