<svg xmlns="http://www.w3.org/2000/svg" data-name="Layer 1" viewBox="0 0 35 35"><path fill="#fff" fill-rule="evenodd" d="M24.56,3.09h0a5.12,5.12,0,0,1,5.1,5.11v8.24a5.12,5.12,0,0,1-5.1,5.11h0a5.13,5.13,0,0,1-5.11-5.11V8.2A5.13,5.13,0,0,1,24.56,3.09Z"/><path fill="#4d4d4d" d="M24.56,22.05A5.62,5.62,0,0,1,19,16.44V8.2a5.61,5.61,0,1,1,11.21,0v8.24A5.61,5.61,0,0,1,24.56,22.05Zm0-18.46A4.62,4.62,0,0,0,20,8.2v8.24a4.61,4.61,0,1,0,9.21,0V8.2A4.61,4.61,0,0,0,24.56,3.59Z"/><path fill="#ffc66b" fill-rule="evenodd" d="M15.05,10.74h.59l0,0h0l0,0h0l0,0h0l0,0h0l0,0h0l0,0h0l0,0h0l0,0h0l0,0h0l0,0,0,0h0l0,0h0l0,0h0l0,0h0l0,0,0,0,0,0,0,0,0,0,0,0,0,0,0,0,0,0,0,0,0,0,0,0,0,0,0,0,0,0,0,0v0l0,0v0l0,0v.38h0v0h0v0h0v0h0v0h0V20.5a1.57,1.57,0,0,1-1.57,1.57h0a1.57,1.57,0,0,1-1.58-1.53v9.79a1.58,1.58,0,0,1-1.58,1.58h0a1.58,1.58,0,0,1-1.57-1.54,1.59,1.59,0,0,1-1.58,1.54h0a1.58,1.58,0,0,1-1.58-1.58V20.54a1.57,1.57,0,0,1-1.57,1.53h0A1.57,1.57,0,0,1,4.06,20.5V12.31h0v0h0v0h0v0h0v0h0v-.31l0,0v-.07l0,0v0l0,0,0,0v0l0,0,0,0,0,0,0,0,0,0,0,0,0,0,0,0,0,0,0,0,0,0,0,0,0,0,0,0h0l0,0h0l0,0h0l0,0h0l0,0,0,0h0l0,0h0l0,0h0l0,0h0l0,0h0l0,0h0l0,0h0l0,0H5l0,0h0l0,0h10Z"/><path fill="#4d4d4d" d="M11.94,32.41a2.07,2.07,0,0,1-1.57-.74,2.07,2.07,0,0,1-3.66-1.34V22.27a2.05,2.05,0,0,1-1.07.3A2.08,2.08,0,0,1,3.56,20.5V12.19s0-.11,0-.12V12s0-.13,0-.13l0-.14,0-.1.05-.13a.26.26,0,0,0,0-.09l.06-.11.08-.13L4,11a.27.27,0,0,0,.07-.08l.09-.09.1-.1.05,0,0,0,.09-.07.12-.07.09-.06.12-.06.09,0,.11,0,.1,0h0l.1,0,.12,0,.13,0h9.87l.13,0,.1,0,.1,0,.12,0,.1.05h0l.09,0h0l0,0h0l0,0h0l.06,0,.1.06a.24.24,0,0,1,.08.06l.11.08.09.07.08.09s.07.07.08.08l.06.07.07.1a.47.47,0,0,1,.06.09l.06.1.06.11s0,.1.05.11a.42.42,0,0,0,0,.1l-.46.21.49-.1,0,.1,0,.11,0,.11-.49.13.5,0V20.5a2.07,2.07,0,0,1-2.07,2.07,2.11,2.11,0,0,1-1.08-.3v8.06A2.08,2.08,0,0,1,11.94,32.41Zm-1.57-2.54a.51.51,0,0,1,.5.49,1.08,1.08,0,0,0,2.15,0V20.54a.5.5,0,0,1,1,0,1.09,1.09,0,0,0,1.08,1,1.07,1.07,0,0,0,1.07-1.07V12.19l0-.11.45-.24-.48.13.44-.23-.48.14,0-.1-.06-.1-.08-.09.29-.42-.38.33,0-.07-.12,0h0l-.11-.05h-.07l.07-.51-.19.46.08-.49-.18.47-.05-.52-.07.5-.09-.5,0,.5H5.45l-.08,0-.27-.44.15.48L5,10.89l.18.47L4.79,11l.25.44-.37-.35.28.42H5l-.12.07,0,0,0,0-.1,0,.06.06-.07.1-.06.1-.5-.09.46.19-.51,0,.47.17v.09l-.51.09.5,0V20.5a1.08,1.08,0,0,0,2.15,0A.48.48,0,0,1,7.22,20a.49.49,0,0,1,.49.5v9.79a1.08,1.08,0,0,0,2.16,0A.51.51,0,0,1,10.37,29.87ZM4.42,11.31l.19.18v-.06Zm11.43-.08v.17L16,11Zm-11.33,0,.09.1v0ZM15.85,11v0l0-.08Z"/><path fill="#4d4d4d" d="M7.21 21a.51.51 0 0 1-.5-.5V18.39a.51.51 0 0 1 .5-.5.5.5 0 0 1 .5.5v2.15A.5.5 0 0 1 7.21 21zM10.37 30.87a.5.5 0 0 1-.5-.5V22.73a.5.5 0 0 1 .5-.5.5.5 0 0 1 .5.5v7.64A.5.5 0 0 1 10.37 30.87z"/><polygon fill="#fff" fill-rule="evenodd" points="7.95 10.74 12.79 10.74 10.37 17.38 7.95 10.74"/><path fill="#4d4d4d" d="M10.37,17.88h0a.5.5,0,0,1-.47-.33L7.48,10.91a.5.5,0,0,1,.06-.46A.51.51,0,0,1,8,10.24h4.84a.52.52,0,0,1,.41.21.53.53,0,0,1,.06.46l-2.42,6.64A.51.51,0,0,1,10.37,17.88ZM8.66,11.24l1.71,4.68,1.7-4.68Z"/><path fill="#4d4d4d" d="M6.56 13.91a.46.46 0 0 1-.23-.06.49.49 0 0 1-.21-.67L7.5 10.51a.51.51 0 0 1 .68-.22.51.51 0 0 1 .21.68L7 13.64A.5.5 0 0 1 6.56 13.91zM14.18 13.91a.51.51 0 0 1-.45-.27L12.34 11a.51.51 0 0 1 .22-.68.5.5 0 0 1 .67.22l1.39 2.67a.5.5 0 0 1-.21.67A.53.53 0 0 1 14.18 13.91z"/><path fill="#fff" fill-rule="evenodd" d="M10.37,9.14a3,3,0,1,0-3-3A3,3,0,0,0,10.37,9.14Z"/><path fill="#4d4d4d" d="M10.37,9.64a3.53,3.53,0,1,1,3.52-3.52A3.53,3.53,0,0,1,10.37,9.64Zm0-6.05a2.53,2.53,0,1,0,2.52,2.53A2.52,2.52,0,0,0,10.37,3.59Z"/><path fill="#ffc66b" fill-rule="evenodd" d="M21.5,13.57c.44-.91,1.9-.57,3.06-.14,1.15-.43,2.62-.77,3.05.14s-.4,4.26-1.45,5.79H23C21.91,17.83,21,14.57,21.5,13.57Z"/><path fill="#4d4d4d" d="M26.16,19.86H23a.49.49,0,0,1-.41-.22c-1-1.5-2.12-5-1.49-6.29.46-.95,1.64-1.1,3.51-.45,1.86-.65,3-.5,3.5.45.64,1.3-.46,4.8-1.49,6.29A.49.49,0,0,1,26.16,19.86Zm-2.93-1h2.66c1-1.59,1.61-4.38,1.28-5.08-.21-.42-1.1-.37-2.44.12a.53.53,0,0,1-.35,0c-1.34-.5-2.23-.54-2.43-.12h0C21.61,14.48,22.25,17.26,23.23,18.86ZM21.5,13.57h0Z"/><path fill="#fff" fill-rule="evenodd" d="M26.16 19.36H23c-3.42 2.73-4.45 7.36-4.77 12.54a7 7 0 006.38-3.24 7 7 0 006.38 3.24C30.62 26.72 29.59 22.09 26.16 19.36zM24.56 11.4a3 3 0 10-3-3A3 3 0 0024.56 11.4z"/><path fill="#4d4d4d" d="M24.56 11.9a3.53 3.53 0 113.52-3.52A3.53 3.53 0 0124.56 11.9zm0-6.05a2.53 2.53 0 102.52 2.53A2.53 2.53 0 0024.56 5.85zM13.52 21a.5.5 0 01-.5-.5V18.39a.5.5 0 011 0v2.15A.5.5 0 0113.52 21z"/><path fill="#e6e6e6" fill-rule="evenodd" d="M26,21.33c1.6,2.83,2.22,6.57,2.45,10.29a8.07,8.07,0,0,0,2.47.28c-.28-4.45-1.08-8.49-3.47-11.27a9.85,9.85,0,0,0-1.31-1.27H24.6A10,10,0,0,1,26,21.33Z"/><path fill="#4d4d4d" d="M30.67,32.41a7.43,7.43,0,0,1-6.11-2.9,7.57,7.57,0,0,1-6.4,2.89.48.48,0,0,1-.35-.16.46.46,0,0,1-.13-.37c.27-4.38,1.08-9.81,5-12.9a.51.51,0,0,1,.31-.11h3.21a.51.51,0,0,1,.31.11c3.89,3.09,4.7,8.52,5,12.9a.5.5,0,0,1-.49.53ZM23.13,19.86C19.82,22.61,19,27.38,18.71,31.4a6.42,6.42,0,0,0,5.43-3,.52.52,0,0,1,.83,0,6.41,6.41,0,0,0,5.43,3c-.28-4-1.1-8.79-4.42-11.54Z"/></svg>