<svg xmlns="http://www.w3.org/2000/svg" enable-background="new 0 0 24 24" viewBox="0 0 24 24"><path d="M17,20H5c-0.5522,0-1,0.4473-1,1s0.4478,1,1,1h12c1.6543,0,3-1.3457,3-3s-1.3457-3-3-3H9c-0.5513,0-1-0.4482-1-1
			s0.4487-1,1-1h2c0.5522,0,1-0.4473,1-1v-3h6c0.3687,0,0.7075-0.2031,0.8818-0.5283c0.1738-0.3252,0.1548-0.7197-0.0498-1.0264
			L17.2017,6l1.6304-2.4453c0.2046-0.3066,0.2236-0.7012,0.0498-1.0264C18.7075,2.2031,18.3687,2,18,2h-7c-0.5522,0-1,0.4473-1,1v6
			v3H9c-1.6543,0-3,1.3457-3,3s1.3457,3,3,3h8c0.5513,0,1,0.4482,1,1S17.5513,20,17,20z M12,4h4.1313L15.168,5.4453
			c-0.2241,0.3359-0.2241,0.7734,0,1.1094L16.1313,8H12V4z"/></svg>