<svg xmlns="http://www.w3.org/2000/svg" enable-background="new 0 0 512 512" viewBox="0 0 512 512"><path d="M130,240c-45.8,0-83-37.2-83-83v-50h10v50c0,40.3,32.7,73,73,73s73-32.7,73-73v-50h10v50C213,202.8,175.8,240,130,240z"/><path d="M52 160H39c-16 0-29-13-29-29s13-29 29-29h13c2.8 0 5 2.2 5 5v48C57 157.8 54.8 160 52 160zM39 112c-10.5 0-19 8.5-19 19s8.5 19 19 19h8v-38H39zM221 160h-13c-2.8 0-5-2.2-5-5v-48c0-2.8 2.2-5 5-5h13c16 0 29 13 29 29S237 160 221 160zM213 150h8c10.5 0 19-8.5 19-19s-8.5-19-19-19h-8V150zM303 160h-13c-16 0-29-13-29-29s13-29 29-29h13c2.8 0 5 2.2 5 5v48C308 157.8 305.8 160 303 160zM290 112c-10.5 0-19 8.5-19 19s8.5 19 19 19h8v-38H290zM472 160h-13c-2.8 0-5-2.2-5-5v-48c0-2.8 2.2-5 5-5h13c16 0 29 13 29 29S488 160 472 160zM464 150h8c10.5 0 19-8.5 19-19s-8.5-19-19-19h-8V150z"/><path d="M221,112h-29.2c-11.2,0-21.3-6.6-25.9-16.8l-8.5-19c-2.1-4.6-5.9-8.1-10.7-9.8c-4.8-1.7-9.9-1.3-14.5,1c-1.4,0.7-3.1,0.7-4.5,0c-4.5-2.3-9.7-2.6-14.5-1c-4.8,1.7-8.6,5.2-10.7,9.8l-8.5,19C89.5,105.4,79.3,112,68.2,112H39c-2.3,0-4.3-1.6-4.9-3.9l-5.7-24.4c-4.8-20.4-0.1-41.5,12.9-57.9C54.3,9.4,73.7,0,94.7,0c13.9,0,26.8,6.3,35.3,16.9C138.5,6.3,151.5,0,165.3,0c20.9,0,40.4,9.4,53.4,25.8c13,16.4,17.7,37.5,12.9,57.9l-5.7,24.4C225.4,110.4,223.4,112,221,112z M140.6,55.4c3.2,0,6.4,0.5,9.5,1.6c7.4,2.6,13.2,8,16.5,15.1l8.5,19c3,6.6,9.5,10.9,16.8,10.9h25.3l4.8-20.6C226,64,222,46,210.9,32c-11.1-14-27.7-22-45.6-22c-12.9,0-24.7,7-30.9,18.3c-0.9,1.6-2.6,2.6-4.4,2.6s-3.5-1-4.4-2.6C119.4,17,107.5,10,94.7,10c-17.9,0-34.5,8-45.6,22C38,46,34,64,38.1,81.4l4.8,20.6h25.3c7.2,0,13.8-4.3,16.8-10.9l8.5-19C96.7,65,102.6,59.6,110,57c6.6-2.3,13.6-2.2,20,0.4C133.4,56.1,137,55.4,140.6,55.4z"/><rect width="10" height="37" x="125" y="26"/><path d="M381,240c-45.8,0-83-37.2-83-83v-50h10v50c0,40.3,32.7,73,73,73s73-32.7,73-73v-50h10v50C464,202.8,426.8,240,381,240z"/><rect width="10" height="148" x="52" y="359"/><rect width="24" height="10" x="337" y="114"/><path d="M366,153h-10v-14h-7v-10h12c2.8,0,5,2.2,5,5V153z"/><rect width="24" height="10" x="401" y="114"/><path d="M406 153h-10v-19c0-2.8 2.2-5 5-5h12v10h-7V153zM381.3 188c-1.1 0-2.2-.4-3.2-1.1l-12.3-10 6.3-7.8 9.1 7.4 8.5-7.3 6.5 7.6-11.7 10C383.6 187.6 382.5 188 381.3 188z"/><rect width="24" height="10" x="86" y="114"/><rect width="10" height="19" x="105" y="134"/><rect width="24" height="10" x="150" y="114"/><rect width="10" height="19" x="145" y="134"/><path d="M130 186.3c-8.5 0-17-3.2-23.5-9.7l7.1-7.1c9.1 9.1 23.8 9.1 32.9 0l7.1 7.1C147 183 138.5 186.3 130 186.3zM496 196c-23.2 0-42-18.8-42-42v-41c0-40.3-32.7-73-73-73s-73 32.7-73 73v41c0 23.2-18.8 42-42 42-2.8 0-5-2.2-5-5V85c0-46.9 38.1-85 85-85h70c46.9 0 85 38.1 85 85v106C501 193.8 498.8 196 496 196zM381 30c45.8 0 83 37.2 83 83v41c0 15.9 11.7 29.2 27 31.6V85c0-41.4-33.6-75-75-75h-70c-41.4 0-75 33.6-75 75v100.6c15.3-2.4 27-15.7 27-31.6v-41C298 67.2 335.2 30 381 30zM244 512H5c-2.8 0-5-2.2-5-5V346.6c0-42.9 29-80.7 70.4-91.8l24.8-6.6 2.6 9.7L73 264.5c-37.1 9.9-63 43.7-63 82.1V502h229V356.6c0-44.2-30.1-82.3-73.1-92.4l-26.5-6.3 2.3-9.7 26.5 6.3c22.9 5.4 43.6 18.6 58.2 37C241 309.9 249 333 249 356.6V507C249 509.8 246.8 512 244 512zM507 512H268c-2.8 0-5-2.2-5-5V356.6c0-23.5 8-46.7 22.6-65.1 14.6-18.5 35.3-31.6 58.2-37l22.7-5.4v-14.6h10V253c0 2.3-1.6 4.3-3.8 4.9l-26.5 6.3c-43.1 10.2-73.1 48.2-73.1 92.4V502h229V346.6c0-38.4-25.9-72.2-63-82.1l-24.8-6.6c-2.2-.6-3.7-2.6-3.7-4.8v-26h10v22.2l21.1 5.6c41.5 11.1 70.4 48.8 70.4 91.8V507C512 509.8 509.8 512 507 512z"/><rect width="10" height="148" x="211" y="359"/><path d="M460 507h-10V364H299.8l-6.3 23.1c-2.7 10-1.8 20.7 2.5 30 3.3 7.1 5 14.9 5 22.6V507h-10v-67.2c0-6.3-1.4-12.7-4.1-18.5-5.3-11.5-6.4-24.6-3.1-36.9l7.3-26.8c.6-2.2 2.6-3.7 4.8-3.7h159c2.8 0 5 2.2 5 5V507zM148.9 306.7l-18.4-16.9-18.4 16.9-6.8-7.4 21.8-20c1.9-1.8 4.9-1.8 6.8 0l21.8 20L148.9 306.7z"/><path d="M130.5,288c-1.2,0-2.4-0.4-3.3-1.3l-34-30c-1.1-0.9-1.7-2.3-1.7-3.7v-25.5h10v23.3l26.6,23.5l7.4-22.1v-17.9h10V253c0,0.5-0.1,1.1-0.3,1.6l-10,30c-0.5,1.6-1.8,2.8-3.4,3.2C131.4,287.9,130.9,288,130.5,288z"/><path d="M138,364c-1.8,0-3.6-1-4.4-2.7l-29.3-56c-0.2-0.4-0.3-0.7-0.4-1.1l-12.2-50l9.7-2.4l12.1,49.4l22.9,43.9l10.7-42.2l-11.5-48.8l9.7-2.3l11.8,50c0.2,0.8,0.2,1.6,0,2.4l-14.3,56c-0.5,2-2.2,3.5-4.3,3.7C138.4,364,138.2,364,138,364z"/><rect width="10" height="148" x="133" y="359"/><path d="M138 401.3c-1.1 0-2.2-.4-3.2-1.1l-57.6-46.8c-1.5-1.2-2.1-3.1-1.7-4.9l6.4-30.4-26.2-7.2c-1.3-.4-2.4-1.2-3.1-2.4s-.8-2.6-.4-3.9l8.5-26.7 9.5 3-6.9 21.8 25.7 7.1c2.5.7 4.1 3.3 3.6 5.9l-6.8 32 51.5 41.8 38.7-44.8-15.2-30.7c-1.2-2.4-.3-5.3 2.1-6.6l16.2-8.8-16.7-37.2 9.1-4.1 18.6 41.4c1.1 2.4.1 5.2-2.2 6.5l-16.1 8.7 14.5 29.3c.9 1.8.6 4-.7 5.5l-44 51C140.8 400.7 139.4 401.3 138 401.3zM387.7 315c-22.4 0-41.2-16-44.9-38.1l-2.8-16.8 9.9-1.6 2.8 16.8c2.8 17.2 17.6 29.7 35 29.7 12.6 0 24.4-6.8 30.7-17.7l17.6-30.2 8.6 5L427 292.4C418.9 306.3 403.8 315 387.7 315zM458.8 112h-1.7c-20.2 0-39.5-7.6-54.2-21.5L381 69.8l-21.9 20.6c-14.7 13.9-34 21.5-54.2 21.5h-1.7v-10h1.7c17.7 0 34.5-6.7 47.3-18.8l25.3-23.9c1.9-1.8 4.9-1.8 6.9 0l25.3 23.9c12.9 12.1 29.7 18.8 47.3 18.8h1.7V112z"/><rect width="10" height="93.1" x="491" y="190.3"/><path d="M266.8,333.4c-3.9-7.7-5.8-16-5.8-24.6V191h10v117.7c0,7.1,1.6,13.9,4.7,20.1L266.8,333.4z"/></svg>