<svg xmlns="http://www.w3.org/2000/svg" viewBox="0 0 64 64"><g data-name="Glyph"><path d="M36.988 30.663c.059 0 .118 0 .178-.006a3.548 3.548 0 0 0 2.428-1.311.993.993 0 0 0-.173-1.391 1 1 0 0 0-1.4.157 1.55 1.55 0 0 1-.982.549 1.657 1.657 0 0 1-1.2-.629 1 1 0 1 0-1.425 1.4 3.606 3.606 0 0 0 2.574 1.231zm-9.155-.006a3.551 3.551 0 0 0 2.429-1.311 1 1 0 0 0-1.574-1.234 1.556 1.556 0 0 1-.983.549 1.686 1.686 0 0 1-1.2-.629 1 1 0 0 0-1.425 1.4 3.606 3.606 0 0 0 2.575 1.228c.059.003.118.001.178-.003zm1.847 2.515a1 1 0 0 0 0 1.414 3.53 3.53 0 0 0 2.538 1.122 3.991 3.991 0 0 0 2.687-1.108 1 1 0 0 0-1.388-1.44 1.635 1.635 0 0 1-2.423.015 1 1 0 0 0-1.414-.003z"/><path d="M61.974 60.774c-.077-.331-2.02-8.194-14.3-15.309a56.117 56.117 0 0 0-8.074-3.842 12.341 12.341 0 0 1-1.453-2.679 9.4 9.4 0 0 0 5.217-6.685 4.748 4.748 0 0 0 3.814-4.669V17.049C47.176 10.956 40.5 6 32.3 6s-14.879 4.956-14.879 11.049V26.5a4.752 4.752 0 0 0 3.709 4.649 9.037 9.037 0 0 0 4.834 7.54 12.831 12.831 0 0 1-1.564 2.934 54.365 54.365 0 0 0-8.107 3.877C4.042 52.606 2.1 60.444 2.026 60.774A1 1 0 0 0 3 62h58a1 1 0 0 0 .974-1.226ZM44.694 60h-5.446l3.44-14.886a58.988 58.988 0 0 1 3.673 1.906l.917 2.438-2.324 1.027a1.008 1.008 0 0 0-.238 1.682l2.907 2.433Zm-25.388 0-2.928-5.4 2.906-2.435a1.007 1.007 0 0 0-.238-1.682l-2.324-1.027.921-2.439a55.946 55.946 0 0 1 3.668-1.9L24.752 60Zm4.831-14.6 1.8-2.28 5.423 4.538a1 1 0 0 0 1.284 0l5.423-4.538 1.8 2.28-7.867 7Zm19.339-15.247v-3.046l1.651 1.013a2.755 2.755 0 0 1-1.651 2.033Zm-24-3.095 1.645-.909v2.913a2.757 2.757 0 0 1-1.645-2.004Zm3.645 3.949v-5.962l8.942-4.938 9.413 5.773v5.127c0 2.832-2.024 5.289-4.974 6.51a.116.116 0 0 0-.018 0 11.215 11.215 0 0 1-8.836-.2c-2.705-1.278-4.527-3.625-4.527-6.31Zm5.569 8.823a13.353 13.353 0 0 0 7.608-.112c.255.6.51 1.148.762 1.625L32 45.582l-5.062-4.24c.308-.578.59-1.2.839-1.8.3.101.602.201.913.288ZM27.558 60l2.854-6.335.922.821a1 1 0 0 0 1.332 0l.922-.821L36.442 60Z"/></g></svg>